<svg width="35" height="30" viewBox="0 0 35 30" fill="none" xmlns="http://www.w3.org/2000/svg">
<path d="M29.7494 5.27863H27.5094L26.9494 3.5191C26.5864 2.48666 25.913 1.5933 25.0226 0.962784C24.1321 0.33227 23.0686 -0.00418222 21.9795 3.92439e-05H13.0197C11.92 0.00210794 10.8486 0.351388 9.95688 0.998581C9.06516 1.64577 8.39809 2.5582 8.04983 3.60707L7.48984 5.3666H5.24989C3.85753 5.3666 2.5222 5.92274 1.53766 6.91266C0.553112 7.90259 0 9.24522 0 10.6452V24.7214C0 26.1214 0.553112 27.464 1.53766 28.4539C2.5222 29.4439 3.85753 30 5.24989 30H29.7494C31.1417 30 32.4771 29.4439 33.4616 28.4539C34.4462 27.464 34.9993 26.1214 34.9993 24.7214V10.6452C35.0109 9.94463 34.8837 9.24875 34.625 8.59813C34.3664 7.94752 33.9816 7.35518 33.4929 6.85566C33.0042 6.35614 32.4216 5.95944 31.7788 5.68868C31.1361 5.41792 30.4462 5.27853 29.7494 5.27863ZM31.4993 24.6334C31.4993 25.1001 31.315 25.5476 30.9868 25.8776C30.6586 26.2076 30.2135 26.393 29.7494 26.393H5.24989C4.78577 26.393 4.34066 26.2076 4.01248 25.8776C3.6843 25.5476 3.49993 25.1001 3.49993 24.6334V10.5572C3.49993 10.0906 3.6843 9.64301 4.01248 9.31304C4.34066 8.98306 4.78577 8.79768 5.24989 8.79768H8.74982C9.13143 8.81771 9.50906 8.7116 9.82506 8.49555C10.141 8.2795 10.378 7.96539 10.4998 7.6012L11.4448 4.71558C11.5622 4.3661 11.7858 4.06255 12.0841 3.84785C12.3825 3.63315 12.7404 3.51814 13.1072 3.5191H22.067C22.4339 3.51814 22.7918 3.63315 23.0901 3.84785C23.3884 4.06255 23.6121 4.3661 23.7295 4.71558L24.6745 7.6012C24.7868 7.93682 24.9972 8.23057 25.2782 8.44403C25.5592 8.6575 25.8977 8.78076 26.2495 8.79768H29.7494C30.2135 8.79768 30.6586 8.98306 30.9868 9.31304C31.315 9.64301 31.4993 10.0906 31.4993 10.5572V24.6334ZM17.4996 8.79768C16.1152 8.79768 14.7618 9.21046 13.6107 9.98382C12.4596 10.7572 11.5624 11.8564 11.0326 13.1424C10.5028 14.4285 10.3642 15.8436 10.6343 17.2089C10.9044 18.5741 11.571 19.8282 12.55 20.8125C13.5289 21.7968 14.7762 22.4671 16.134 22.7387C17.4919 23.0102 18.8993 22.8709 20.1784 22.3382C21.4574 21.8055 22.5506 20.9034 23.3198 19.746C24.089 18.5885 24.4995 17.2278 24.4995 15.8358C24.4995 13.9692 23.762 12.179 22.4493 10.8591C21.1366 9.5392 19.3561 8.79768 17.4996 8.79768ZM17.4996 19.3549C16.8074 19.3549 16.1307 19.1485 15.5552 18.7618C14.9796 18.3751 14.531 17.8255 14.2661 17.1825C14.0012 16.5395 13.9319 15.8319 14.067 15.1493C14.202 14.4666 14.5353 13.8396 15.0248 13.3474C15.5143 12.8553 16.1379 12.5201 16.8168 12.3844C17.4958 12.2486 18.1995 12.3183 18.839 12.5846C19.4785 12.851 20.0251 13.302 20.4097 13.8807C20.7943 14.4594 20.9996 15.1398 20.9996 15.8358C20.9996 16.7691 20.6308 17.6642 19.9745 18.3241C19.3181 18.9841 18.4279 19.3549 17.4996 19.3549Z" fill="white"/>
</svg>
